{
  "accessors": [
    {
      "bufferView": 2,
      "componentType": 5126,
      "count": 41603,
      "max": [
        0.33576899766921997,
        0.7751370072364807,
        0.30111101269721985
      ],
      "min": [
        -0.33576899766921997,
        0.1379760056734085,
        -0.4732469916343689
      ],
      "type": "VEC3"
    },
    {
      "bufferView": 2,
      "byteOffset": 499236,
      "componentType": 5126,
      "count": 41603,
      "max": [
        1.0,
        0.9999996423721313,
        0.9999998211860657
      ],
      "min": [
        -1.0,
        -1.0,
        -0.9999999403953552
      ],
      "type": "VEC3"
    },
    {
      "bufferView": 1,
      "componentType": 5126,
      "count": 41603,
      "max": [
        2.403709888458252,
        0.9830660223960876
      ],
      "min": [
        0.02164269983768463,
        -0.7619879841804504
      ],
      "type": "VEC2"
    },
    {
      "bufferView": 1,
      "byteOffset": 332824,
      "componentType": 5126,
      "count": 41603,
      "max": [
        1.014299988746643,
        1.032099962234497
      ],
      "min": [
        -1.0,
        -0.032253898680210114
      ],
      "type": "VEC2"
    },
    {
      "bufferView": 0,
      "componentType": 5125,
      "count": 200964,
      "type": "SCALAR"
    },
    {
      "bufferView": 2,
      "byteOffset": 998472,
      "componentType": 5126,
      "count": 1944,
      "max": [
        0.30271899700164795,
        0.14370299875736237,
        0.2397180050611496
      ],
      "min": [
        -0.30271899700164795,
        -0.0009609999833628535,
        -0.26304200291633606
      ],
      "type": "VEC3"
    },
    {
      "bufferView": 2,
      "byteOffset": 1021800,
      "componentType": 5126,
      "count": 1944,
      "max": [
        0.9985148906707764,
        1.0,
        0.998511016368866
      ],
      "min": [
        -0.9985148906707764,
        -1.0,
        -0.9817442297935486
      ],
      "type": "VEC3"
    },
    {
      "bufferView": 1,
      "byteOffset": 665648,
      "componentType": 5126,
      "count": 1944,
      "max": [
        0.0,
        0.0
      ],
      "min": [
        0.0,
        0.0
      ],
      "type": "VEC2"
    },
    {
      "bufferView": 1,
      "byteOffset": 681200,
      "componentType": 5126,
      "count": 1944,
      "max": [
        0.0,
        0.0
      ],
      "min": [
        0.0,
        0.0
      ],
      "type": "VEC2"
    },
    {
      "bufferView": 0,
      "byteOffset": 803856,
      "componentType": 5125,
      "count": 11616,
      "type": "SCALAR"
    }
  ],
  "asset": {
    "extras": {
      "author": "BertO (https://sketchfab.com/bertosalotti)",
      "license": "CC-BY-NC-ND-4.0 (http://creativecommons.org/licenses/by-nc-nd/4.0/)",
      "source": "https://sketchfab.com/3d-models/emilia-capitonne-armchair-a2bdcdeb79f34c40b68b15c364bb3bf7",
      "title": "Emilia Capitonné Armchair"
    },
    "generator": "Sketchfab-12.66.0",
    "version": "2.0"
  },
  "bufferViews": [
    {
      "buffer": 0,
      "byteLength": 850320,
      "name": "floatBufferViews",
      "target": 34963
    },
    {
      "buffer": 0,
      "byteLength": 696752,
      "byteOffset": 850320,
      "byteStride": 8,
      "name": "floatBufferViews",
      "target": 34962
    },
    {
      "buffer": 0,
      "byteLength": 1045128,
      "byteOffset": 1547072,
      "byteStride": 12,
      "name": "floatBufferViews",
      "target": 34962
    }
  ],
  "buffers": [
    {
      "byteLength": 2592200,
      "uri": "scene.bin"
    }
  ],
  "extensionsRequired": [
    "KHR_materials_pbrSpecularGlossiness"
  ],
  "extensionsUsed": [
    "KHR_materials_pbrSpecularGlossiness"
  ],
  "images": [
    {
      "uri": "textures/Tessuto_diffuse.jpeg"
    },
    {
      "uri": "textures/Tessuto_specularGlossiness.png"
    }
  ],
  "materials": [
    {
      "doubleSided": true,
      "extensions": {
        "KHR_materials_pbrSpecularGlossiness": {
          "diffuseFactor": [
            1.0,
            1.0,
            1.0,
            1.0
          ],
          "diffuseTexture": {
            "index": 0
          },
          "glossinessFactor": 0.1,
          "specularFactor": [
            0.0,
            0.0,
            0.0
          ],
          "specularGlossinessTexture": {
            "index": 1,
            "texCoord": 1
          }
        }
      },
      "name": "Tessuto"
    },
    {
      "doubleSided": true,
      "extensions": {
        "KHR_materials_pbrSpecularGlossiness": {
          "diffuseFactor": [
            0.028644757953333485,
            0.028644757953333485,
            0.028644757953333485,
            1.0
          ],
          "glossinessFactor": 0.75,
          "specularFactor": [
            0.9500000000000001,
            0.9500000000000001,
            0.9500000000000001
          ]
        }
      },
      "name": "gambe_vanessa"
    }
  ],
  "meshes": [
    {
      "name": "Material-Tessuto",
      "primitives": [
        {
          "attributes": {
            "NORMAL": 1,
            "POSITION": 0,
            "TEXCOORD_0": 2,
            "TEXCOORD_1": 3
          },
          "indices": 4,
          "material": 0,
          "mode": 4
        }
      ]
    },
    {
      "name": "Material-gambe_vanessa",
      "primitives": [
        {
          "attributes": {
            "NORMAL": 6,
            "POSITION": 5,
            "TEXCOORD_0": 7,
            "TEXCOORD_1": 8
          },
          "indices": 9,
          "material": 1,
          "mode": 4
        }
      ]
    }
  ],
  "nodes": [
    {
      "children": [
        1
      ],
      "matrix": [
        1.0,
        0.0,
        0.0,
        0.0,
        0.0,
        2.220446049250313e-16,
        -1.0,
        0.0,
        0.0,
        1.0,
        2.220446049250313e-16,
        0.0,
        0.0,
        0.0,
        0.0,
        1.0
      ],
      "name": "Sketchfab_model"
    },
    {
      "children": [
        2,
        4,
        6,
        9
      ],
      "matrix": [
        1.0,
        0.0,
        0.0,
        0.0,
        0.0,
        -4.371139006309477e-08,
        0.999999999999999,
        0.0,
        0.0,
        -0.999999999999999,
        -4.371139006309477e-08,
        0.0,
        0.0,
        0.0,
        0.0,
        1.0
      ],
      "name": "Collada visual scene group"
    },
    {
      "children": [
        3
      ],
      "matrix": [
        0.7071067811865475,
        0.0,
        0.7071067811865476,
        0.0,
        0.35355339059327373,
        0.8660254037844387,
        -0.3535533905932737,
        0.0,
        -0.6123724356957946,
        0.49999999999999994,
        0.6123724356957945,
        0.0,
        -2.0,
        2.0,
        2.0,
        1.0
      ],
      "name": "Directional_Light"
    },
    {
      "name": "Directional_Light"
    },
    {
      "children": [
        5
      ],
      "matrix": [
        1.0,
        0.0,
        0.0,
        0.0,
        0.0,
        0.9961946980917455,
        -0.08715574274765817,
        0.0,
        0.0,
        0.08715574274765817,
        0.9961946980917455,
        0.0,
        0.0,
        0.75,
        4.0,
        1.0
      ],
      "name": "Camera"
    },
    {
      "name": "Camera-camera003"
    },
    {
      "children": [
        7,
        8
      ],
      "name": "Mesh"
    },
    {
      "mesh": 0,
      "name": "Material-Tessuto"
    },
    {
      "mesh": 1,
      "name": "Material-gambe_vanessa"
    },
    {
      "children": [
        10
      ],
      "name": "Render"
    },
    {
      "name": "Render"
    }
  ],
  "samplers": [
    {
      "magFilter": 9729,
      "minFilter": 9987,
      "wrapS": 10497,
      "wrapT": 10497
    }
  ],
  "scene": 0,
  "scenes": [
    {
      "name": "Sketchfab_Scene",
      "nodes": [
        0
      ]
    }
  ],
  "textures": [
    {
      "sampler": 0,
      "source": 0
    },
    {
      "sampler": 0,
      "source": 1
    }
  ]
}
