{
  "accessors": [
    {
      "bufferView": 2,
      "componentType": 5126,
      "count": 4766,
      "max": [2.7326109409332275, 0.7765700221061707, 7.074283123016357],
      "min": [-2.7321560382843018, -0.5441759824752808, 4.232326984405518],
      "type": "VEC3"
    },
    {
      "bufferView": 2,
      "byteOffset": 57192,
      "componentType": 5126,
      "count": 4766,
      "max": [0.9996323585510254, 0.9999337792396545, 0.9842156171798706],
      "min": [-0.9990301132202148, -0.9999487400054932, -0.9982221126556396],
      "type": "VEC3"
    },
    {
      "bufferView": 3,
      "componentType": 5126,
      "count": 4766,
      "max": [0.9999971389770508, 0.99966961145401, 0.9972628951072693, 1.0],
      "min": [
        -0.9999950528144836, -0.999930202960968, -0.9969417452812195, -1.0
      ],
      "type": "VEC4"
    },
    {
      "bufferView": 1,
      "componentType": 5126,
      "count": 4766,
      "max": [0.9954100251197815, 0.981660008430481],
      "min": [0.015960000455379486, 0.016529999673366547],
      "type": "VEC2"
    },
    {
      "bufferView": 0,
      "componentType": 5125,
      "count": 25488,
      "type": "SCALAR"
    },
    {
      "bufferView": 2,
      "byteOffset": 114384,
      "componentType": 5126,
      "count": 3716,
      "max": [0.48304200172424316, 0.017389999702572823, 6.75569486618042],
      "min": [-0.48851001262664795, -0.3427349925041199, 6.473199844360352],
      "type": "VEC3"
    },
    {
      "bufferView": 2,
      "byteOffset": 158976,
      "componentType": 5126,
      "count": 3716,
      "max": [0.9873382449150085, 0.9906964898109436, 0.993993878364563],
      "min": [-0.9784431457519531, -0.9906717538833618, -0.9638322591781616],
      "type": "VEC3"
    },
    {
      "bufferView": 3,
      "byteOffset": 76256,
      "componentType": 5126,
      "count": 3716,
      "max": [0.9997401237487793, 0.9994943737983704, 0.999997615814209, 1.0],
      "min": [
        -0.7024282217025757, -0.9959982633590698, -0.9999823570251465, 1.0
      ],
      "type": "VEC4"
    },
    {
      "bufferView": 1,
      "byteOffset": 38128,
      "componentType": 5126,
      "count": 3716,
      "max": [0.9980080127716064, 0.9330160021781921],
      "min": [0.0019920000340789557, 0.0018619999755173922],
      "type": "VEC2"
    },
    {
      "bufferView": 0,
      "byteOffset": 101952,
      "componentType": 5125,
      "count": 5568,
      "type": "SCALAR"
    },
    {
      "bufferView": 2,
      "byteOffset": 203568,
      "componentType": 5126,
      "count": 8832,
      "max": [0.8726649880409241, 0.32387998700141907, 4.706934928894043],
      "min": [-0.8726649880409241, -0.3962549865245819, 4.377692222595215],
      "type": "VEC3"
    },
    {
      "bufferView": 2,
      "byteOffset": 309552,
      "componentType": 5126,
      "count": 8832,
      "max": [0.9997031092643738, 0.9425879716873169, 0.9999763369560242],
      "min": [-0.9997031092643738, -0.9441357851028442, -0.9999408721923828],
      "type": "VEC3"
    },
    {
      "bufferView": 3,
      "byteOffset": 135712,
      "componentType": 5126,
      "count": 8832,
      "max": [1.0, 0.9999181032180786, 1.0, 1.0],
      "min": [
        -0.42211610078811646, -0.9998684525489807, -0.9999990463256836, 1.0
      ],
      "type": "VEC4"
    },
    {
      "bufferView": 1,
      "byteOffset": 67856,
      "componentType": 5126,
      "count": 8832,
      "max": [0.9508820176124573, 0.9980080127716064],
      "min": [0.0018980000168085098, 0.0019920000340789557],
      "type": "VEC2"
    },
    {
      "bufferView": 0,
      "byteOffset": 124224,
      "componentType": 5125,
      "count": 13248,
      "type": "SCALAR"
    }
  ],
  "asset": {
    "extras": {
      "author": "KhangDuyNguyen189 (https://sketchfab.com/KhangNguyen189)",
      "license": "CC-BY-4.0 (http://creativecommons.org/licenses/by/4.0/)",
      "source": "https://sketchfab.com/3d-models/brown-biker-leather-jacket-c584d46a06af40e4b495759d8b76fda9",
      "title": "Brown Biker Leather Jacket"
    },
    "generator": "Sketchfab-15.55.0",
    "version": "2.0"
  },
  "bufferViews": [
    {
      "buffer": 0,
      "byteLength": 177216,
      "name": "floatBufferViews",
      "target": 34963
    },
    {
      "buffer": 0,
      "byteLength": 138512,
      "byteOffset": 177216,
      "byteStride": 8,
      "name": "floatBufferViews",
      "target": 34962
    },
    {
      "buffer": 0,
      "byteLength": 415536,
      "byteOffset": 315728,
      "byteStride": 12,
      "name": "floatBufferViews",
      "target": 34962
    },
    {
      "buffer": 0,
      "byteLength": 277024,
      "byteOffset": 731264,
      "byteStride": 16,
      "name": "floatBufferViews",
      "target": 34962
    }
  ],
  "buffers": [
    {
      "byteLength": 1008288,
      "uri": "scene.bin"
    }
  ],
  "images": [
    {
      "uri": "textures/blinn1SG_baseColor.png"
    },
    {
      "uri": "textures/blinn1SG_metallicRoughness.png"
    },
    {
      "uri": "textures/blinn1SG_normal.png"
    },
    {
      "uri": "textures/blinn2SG_baseColor.png"
    },
    {
      "uri": "textures/blinn2SG_metallicRoughness.png"
    },
    {
      "uri": "textures/blinn2SG_normal.png"
    },
    {
      "uri": "textures/blinn3SG_baseColor.png"
    },
    {
      "uri": "textures/blinn3SG_metallicRoughness.png"
    },
    {
      "uri": "textures/blinn3SG_normal.png"
    }
  ],
  "materials": [
    {
      "doubleSided": true,
      "name": "blinn1SG",
      "normalTexture": {
        "index": 2
      },
      "occlusionTexture": {
        "index": 1
      },
      "pbrMetallicRoughness": {
        "baseColorTexture": {
          "index": 0
        },
        "metallicRoughnessTexture": {
          "index": 1
        }
      }
    },
    {
      "doubleSided": true,
      "name": "blinn2SG",
      "normalTexture": {
        "index": 5
      },
      "occlusionTexture": {
        "index": 4
      },
      "pbrMetallicRoughness": {
        "baseColorTexture": {
          "index": 3
        },
        "metallicRoughnessTexture": {
          "index": 4
        }
      }
    },
    {
      "doubleSided": true,
      "name": "blinn3SG",
      "normalTexture": {
        "index": 8
      },
      "occlusionTexture": {
        "index": 7
      },
      "pbrMetallicRoughness": {
        "baseColorTexture": {
          "index": 6
        },
        "metallicRoughnessTexture": {
          "index": 7
        }
      }
    }
  ],
  "meshes": [
    {
      "name": "Object_0",
      "primitives": [
        {
          "attributes": {
            "NORMAL": 1,
            "POSITION": 0,
            "TANGENT": 2,
            "TEXCOORD_0": 3
          },
          "indices": 4,
          "material": 0,
          "mode": 4
        }
      ]
    },
    {
      "name": "Object_1",
      "primitives": [
        {
          "attributes": {
            "NORMAL": 6,
            "POSITION": 5,
            "TANGENT": 7,
            "TEXCOORD_0": 8
          },
          "indices": 9,
          "material": 1,
          "mode": 4
        }
      ]
    },
    {
      "name": "Object_2",
      "primitives": [
        {
          "attributes": {
            "NORMAL": 11,
            "POSITION": 10,
            "TANGENT": 12,
            "TEXCOORD_0": 13
          },
          "indices": 14,
          "material": 2,
          "mode": 4
        }
      ]
    }
  ],
  "nodes": [
    {
      "children": [1],
      "matrix": [
        1.0, 0.0, 0.0, 0.0, 0.0, 2.220446049250313e-16, -1.0, 0.0, 0.0, 1.0,
        2.220446049250313e-16, 0.0, 0.0, 0.0, 0.0, 1.0
      ],
      "name": "Sketchfab_model"
    },
    {
      "children": [2, 3, 4],
      "name": "Jacket_Substance.obj.cleaner.materialmerger.gles"
    },
    {
      "mesh": 0,
      "name": "Object_2"
    },
    {
      "mesh": 1,
      "name": "Object_3"
    },
    {
      "mesh": 2,
      "name": "Object_4"
    }
  ],
  "samplers": [
    {
      "magFilter": 9729,
      "minFilter": 9987,
      "wrapS": 10497,
      "wrapT": 10497
    }
  ],
  "scene": 0,
  "scenes": [
    {
      "name": "Sketchfab_Scene",
      "nodes": [0]
    }
  ],
  "textures": [
    {
      "sampler": 0,
      "source": 0
    },
    {
      "sampler": 0,
      "source": 1
    },
    {
      "sampler": 0,
      "source": 2
    },
    {
      "sampler": 0,
      "source": 3
    },
    {
      "sampler": 0,
      "source": 4
    },
    {
      "sampler": 0,
      "source": 5
    },
    {
      "sampler": 0,
      "source": 6
    },
    {
      "sampler": 0,
      "source": 7
    },
    {
      "sampler": 0,
      "source": 8
    }
  ]
}
