{
  "accessors": [
    {
      "bufferView": 2,
      "componentType": 5126,
      "count": 774,
      "max": [
        0.8955980539321899,
        5.237982273101807,
        0.5262436270713806
      ],
      "min": [
        -0.8955980539321899,
        0.3047828674316406,
        -0.8643509149551392
      ],
      "type": "VEC3"
    },
    {
      "bufferView": 2,
      "byteOffset": 9288,
      "componentType": 5126,
      "count": 774,
      "max": [
        0.9999839663505554,
        0.6920941472053528,
        0.9985442161560059
      ],
      "min": [
        -0.9999839067459106,
        -0.9956135749816895,
        -0.999716579914093
      ],
      "type": "VEC3"
    },
    {
      "bufferView": 3,
      "componentType": 5126,
      "count": 774,
      "max": [
        0.6760367751121521,
        0.09476783871650696,
        0.9956134557723999,
        1.0
      ],
      "min": [
        -0.6761540174484253,
        -0.9997165203094482,
        -0.9956135153770447,
        1.0
      ],
      "type": "VEC4"
    },
    {
      "bufferView": 1,
      "componentType": 5126,
      "count": 774,
      "max": [
        0.9822508096694946,
        0.9639502167701721
      ],
      "min": [
        0.01990627869963646,
        0.06692002713680267
      ],
      "type": "VEC2"
    },
    {
      "bufferView": 0,
      "componentType": 5125,
      "count": 4008,
      "type": "SCALAR"
    }
  ],
  "asset": {
    "extras": {
      "author": "Socksthecat (https://sketchfab.com/Socksthecat)",
      "license": "CC-BY-4.0 (http://creativecommons.org/licenses/by/4.0/)",
      "source": "https://sketchfab.com/3d-models/female-character-pants-21091907075f4b8e8438c3e0ba3510dd",
      "title": "Female Character Pants"
    },
    "generator": "Sketchfab-12.68.0",
    "version": "2.0"
  },
  "bufferViews": [
    {
      "buffer": 0,
      "byteLength": 16032,
      "name": "floatBufferViews",
      "target": 34963
    },
    {
      "buffer": 0,
      "byteLength": 6192,
      "byteOffset": 16032,
      "byteStride": 8,
      "name": "floatBufferViews",
      "target": 34962
    },
    {
      "buffer": 0,
      "byteLength": 18576,
      "byteOffset": 22224,
      "byteStride": 12,
      "name": "floatBufferViews",
      "target": 34962
    },
    {
      "buffer": 0,
      "byteLength": 12384,
      "byteOffset": 40800,
      "byteStride": 16,
      "name": "floatBufferViews",
      "target": 34962
    }
  ],
  "buffers": [
    {
      "byteLength": 53184,
      "uri": "scene.bin"
    }
  ],
  "images": [
    {
      "uri": "textures/F_Skinny_Jeans_baseColor.png"
    },
    {
      "uri": "textures/F_Skinny_Jeans_metallicRoughness.png"
    },
    {
      "uri": "textures/F_Skinny_Jeans_normal.png"
    }
  ],
  "materials": [
    {
      "doubleSided": true,
      "name": "F_Skinny_Jeans",
      "normalTexture": {
        "index": 2
      },
      "pbrMetallicRoughness": {
        "baseColorTexture": {
          "index": 0
        },
        "metallicRoughnessTexture": {
          "index": 1
        }
      }
    }
  ],
  "meshes": [
    {
      "name": "Object_0",
      "primitives": [
        {
          "attributes": {
            "NORMAL": 1,
            "POSITION": 0,
            "TANGENT": 2,
            "TEXCOORD_0": 3
          },
          "indices": 4,
          "material": 0,
          "mode": 4
        }
      ]
    }
  ],
  "nodes": [
    {
      "children": [
        1
      ],
      "matrix": [
        1.0,
        0.0,
        0.0,
        0.0,
        0.0,
        2.220446049250313e-16,
        -1.0,
        0.0,
        0.0,
        1.0,
        2.220446049250313e-16,
        0.0,
        0.0,
        0.0,
        0.0,
        1.0
      ],
      "name": "Sketchfab_model"
    },
    {
      "children": [
        2
      ],
      "name": "root"
    },
    {
      "children": [
        3
      ],
      "matrix": [
        1.0,
        0.0,
        0.0,
        0.0,
        0.0,
        2.220446049250313e-16,
        1.0,
        0.0,
        0.0,
        -1.0,
        2.220446049250313e-16,
        0.0,
        0.0,
        0.0,
        0.0,
        1.0
      ],
      "name": "GLTF_SceneRootNode"
    },
    {
      "children": [
        4
      ],
      "matrix": [
        0.20503422617912292,
        0.0,
        0.0,
        0.0,
        0.0,
        0.18633277714252472,
        0.0,
        0.0,
        0.0,
        0.0,
        0.18523122370243073,
        0.0,
        0.0,
        0.0,
        0.0,
        1.0
      ],
      "name": "Pants_2"
    },
    {
      "mesh": 0,
      "name": "Object_4"
    }
  ],
  "samplers": [
    {
      "magFilter": 9729,
      "minFilter": 9987,
      "wrapS": 10497,
      "wrapT": 10497
    }
  ],
  "scene": 0,
  "scenes": [
    {
      "name": "Sketchfab_Scene",
      "nodes": [
        0
      ]
    }
  ],
  "textures": [
    {
      "sampler": 0,
      "source": 0
    },
    {
      "sampler": 0,
      "source": 1
    },
    {
      "sampler": 0,
      "source": 2
    }
  ]
}
